<svg width="142" height="98" viewBox="0 0 142 98" fill="none" xmlns="http://www.w3.org/2000/svg">
<path d="M21.8252 22.6497L127.377 22.6497L127.377 34.6017L57.8252 34.6017L91.9532 67.2897L91.9532 82.2657L60.9932 52.7457L21.8252 81.6897L21.8252 67.4337L52.9292 44.8257L42.2732 34.6017L21.8252 34.6017L21.8252 22.6497Z" fill="white"/>
<path d="M117.237 43.4189C116.921 35.2107 122.367 22.3738 125.129 16.9814L139.992 43.4189C132.539 46.839 117.552 51.6272 117.237 43.4189Z" fill="black"/>
<path d="M88.9342 79.6064C88.6186 71.3982 94.0641 58.5613 96.8263 53.1689L111.689 79.6064C104.236 83.0265 89.2497 87.8147 88.9342 79.6064Z" fill="black"/>
<path d="M22.9677 65.1443C26.0086 72.775 25.1668 86.6937 24.3658 92.6992L1.52107 72.7499C7.40291 67.0353 19.9268 57.5136 22.9677 65.1443Z" fill="black"/>
<path d="M119.999 79.1604L14.447 79.1604L14.447 67.2084L83.999 67.2084L49.871 34.5204L49.871 19.5444L80.831 49.0644L119.999 20.1204L119.999 34.3764L88.895 56.9844L99.551 67.2084L119.999 67.2084L119.999 79.1604Z" fill="white"/>
<path d="M25.1576 57.7002C25.4732 65.9084 20.0277 78.7453 17.2655 84.1377L2.40234 57.7002C9.85596 54.2801 24.8421 49.492 25.1576 57.7002Z" fill="black"/>
<path d="M48.897 2.79561C56.1633 6.62646 64.766 17.5446 68.0548 22.6329L37.5156 22.633C38.2805 14.468 41.6306 -1.03523 48.897 2.79561Z" fill="black"/>
<path d="M118.497 87.8562C115.456 80.2255 116.298 66.3068 117.099 60.3013L139.944 80.2506C134.062 85.9652 121.538 95.4869 118.497 87.8562Z" fill="black"/>
<rect x="17.8818" y="67.6631" width="3.94293" height="14.6663" fill="black"/>
<path d="M21.8105 67.3302L24.2578 65.6641L27.1832 69.4561L21.8105 73.4183V67.3302Z" fill="white"/>
<rect x="120" y="16.9814" width="5.46973" height="23.0186" fill="black"/>
<rect x="116.014" y="19.1123" width="6.9849" height="3.5126" fill="black"/>
<rect x="110.66" y="67.2065" width="9.33887" height="11.9549" fill="white"/>
</svg>
