<svg width="91" height="91" viewBox="0 0 91 91" fill="none" xmlns="http://www.w3.org/2000/svg">
<g clip-path="url(#clip0_754_420)">
<path fill-rule="evenodd" clip-rule="evenodd" d="M35.8301 8.84401C38.4201 8.19701 39.7401 6.90702 39.3401 5.30702C39.0101 3.98802 38.0701 3.615 36.0401 3.907L34.2201 4.17598C33.5101 4.27598 33.2801 4.21501 33.2101 3.94301C33.1301 3.62301 33.5301 3.35002 34.3501 3.14302C35.3333 2.85935 36.3836 2.91676 37.3301 3.30599L38.3301 1.506C36.9483 1.05786 35.4635 1.03766 34.0701 1.44801C31.6301 2.05901 30.4401 3.24804 30.7901 4.65804C31.1301 5.99604 32.14 6.42303 33.94 6.20003L36.06 5.928C36.66 5.851 36.8602 5.90403 36.9202 6.16603C37.0102 6.53403 36.5802 6.85001 35.5502 7.10701C34.4646 7.36523 33.3223 7.22655 32.3301 6.71602L31.0801 8.51601C32.5753 9.18146 34.2575 9.29762 35.8301 8.84401V8.84401ZM45.4701 7.61202C47.8301 7.61202 49.5401 6.66999 50.1201 5.02999L47.5001 4.44399C47.3818 4.85375 47.1191 5.20687 46.7606 5.43794C46.4021 5.66902 45.9722 5.76245 45.5502 5.70101C45.2841 5.73833 45.013 5.71656 44.7563 5.63722C44.4997 5.55789 44.2636 5.42296 44.065 5.24202C43.8665 5.06109 43.7101 4.83861 43.6073 4.59041C43.5045 4.34221 43.4576 4.07436 43.4701 3.80599C43.4602 3.5372 43.5091 3.2695 43.6134 3.02156C43.7177 2.77362 43.8747 2.55143 44.0737 2.3705C44.2727 2.18957 44.5089 2.05431 44.7656 1.97408C45.0223 1.89385 45.2934 1.87062 45.56 1.90602C45.9817 1.84824 46.4099 1.94568 46.765 2.18025C47.1201 2.41483 47.3778 2.7705 47.4901 3.18099L50.1401 2.68099C49.6601 1.02899 47.91 0.00501696 45.56 1.69557e-05C42.75 -0.00598304 40.7701 1.58099 40.7601 3.83199C40.7601 6.14399 42.6001 7.604 45.4701 7.61V7.61202ZM56.8701 9.12502L59.5901 9.86702L58.6201 6.88802C59.0872 6.85327 59.5314 6.67155 59.8889 6.36885C60.2464 6.06616 60.4988 5.65804 60.6101 5.20302C60.9101 4.09302 60.5402 2.76902 58.1802 2.12502L53.3801 0.81801L51.5201 7.66701L53.9901 8.33998L54.6001 6.10201L56.0301 6.493L56.8701 9.12502ZM55.4202 3.06398L57.1702 3.53902C57.9402 3.75002 58.1001 4.16503 57.9801 4.58003C57.8701 5.01403 57.5301 5.31502 56.7301 5.09902L55.0001 4.62599L55.4202 3.06398ZM64.3601 12.764C66.9001 14.243 69.2502 13.916 70.4302 11.905C71.6102 9.89399 70.73 7.68403 68.19 6.20503C65.65 4.72603 63.2901 5.04804 62.1201 7.05904C60.9501 9.07004 61.8201 11.276 64.3601 12.761V12.764ZM65.3002 11.158C64.9896 10.9408 64.749 10.6377 64.6079 10.286C64.4668 9.93419 64.4312 9.54896 64.5056 9.17732C64.58 8.80568 64.7611 8.46373 65.0267 8.19338C65.2924 7.92302 65.6311 7.73598 66.0013 7.65505C66.3716 7.57412 66.7575 7.60281 67.1117 7.73769C67.4659 7.87256 67.773 8.10773 67.9957 8.41445C68.2184 8.72116 68.3468 9.08612 68.3653 9.46468C68.3839 9.84324 68.2917 10.219 68.1001 10.546C67.9684 10.783 67.7877 10.9892 67.5701 11.1509C67.3524 11.3126 67.1027 11.426 66.8378 11.4837C66.5728 11.5413 66.2987 11.5418 66.0336 11.4851C65.7684 11.4285 65.5184 11.3159 65.3002 11.155V11.158ZM69.6401 15.974L74.6802 20.898L76.0502 19.498L72.8501 16.365L76.44 12.69L74.6101 10.899L69.6401 15.974ZM75.5401 22.062L79.3501 27.981L81.0001 26.92L78.5801 23.154L82.9001 20.372L81.5101 18.22L75.5401 22.062ZM81.2201 32.17L82.3601 36.739C82.9801 39.252 84.8501 40.569 86.9601 40.046C89.0701 39.523 89.9001 37.667 89.2601 35.086L88.1101 30.459L81.2201 32.17ZM83.4501 34.253L87.1301 33.34L87.56 35.076C87.6501 35.3158 87.6873 35.5722 87.6689 35.8277C87.6505 36.0832 87.577 36.3317 87.4535 36.5561C87.33 36.7805 87.1594 36.9755 86.9534 37.1278C86.7474 37.28 86.5109 37.3858 86.2601 37.438C86.0037 37.5189 85.7326 37.543 85.4659 37.5086C85.1992 37.4741 84.9433 37.382 84.7158 37.2385C84.4883 37.0951 84.2948 36.9039 84.1488 36.6781C84.0027 36.4522 83.9076 36.1973 83.8701 35.931L83.4501 34.253ZM83.0701 46.888C82.9501 49.827 84.3502 51.756 86.6802 51.849C89.0102 51.942 90.5502 50.133 90.6702 47.194C90.7902 44.255 89.39 42.316 87.06 42.223C84.73 42.13 83.1901 43.936 83.0701 46.885V46.888ZM84.9302 46.963C84.9759 46.5862 85.1305 46.2309 85.375 45.9406C85.6195 45.6502 85.9432 45.4374 86.3067 45.3282C86.6703 45.219 87.0577 45.2181 87.4217 45.3255C87.7858 45.433 88.1106 45.6442 88.3566 45.9333C88.6025 46.2224 88.7588 46.577 88.8064 46.9536C88.854 47.3301 88.7909 47.7124 88.6247 48.0537C88.4586 48.3949 88.1965 48.6804 87.8707 48.8751C87.5449 49.0698 87.1694 49.1653 86.7901 49.15C86.5186 49.1444 86.2513 49.0812 86.006 48.9646C85.7607 48.848 85.543 48.6807 85.3672 48.4736C85.1914 48.2666 85.0614 48.0247 84.9861 47.7637C84.9107 47.5028 84.8917 47.2289 84.9302 46.96V46.963ZM82.5301 54.405L81.5301 57.097L84.8002 59.781C84.9802 59.9252 85.1745 60.0505 85.3801 60.155L85.3601 60.202C85.1392 60.1379 84.9101 60.1069 84.6802 60.11L80.4501 60.01L79.4601 62.702L85.2801 67.439L86.1702 65.028L82.8201 62.572C82.6175 62.4133 82.3958 62.2805 82.1601 62.177L82.1802 62.13C82.436 62.1874 82.6982 62.2099 82.9601 62.197L87.1802 62.288L88.1201 59.755L84.8601 57.074C84.6672 56.8938 84.4521 56.7388 84.2201 56.613L84.2301 56.567C84.4802 56.643 84.7389 56.6873 85.0001 56.699L89.1401 57.015L90.0301 54.604L82.5301 54.405ZM77.5502 65.988L76.0901 67.788L78.5101 69.751L79.3601 70.437L79.3301 70.476C78.9746 70.4055 78.6124 70.3743 78.2501 70.383L73.7601 70.662L72.19 72.604L77.7001 77.071L79.1601 75.277L76.7601 73.333L75.9001 72.641L75.9302 72.602C76.2795 72.6678 76.6347 72.6969 76.9901 72.689L81.4001 72.512L83.06 70.453L77.5502 65.988ZM66.81 82.799L68.0701 83.837L68.69 82.366L69.0101 83.796L70.5401 82.817L69.3601 81.924L70.9601 81.975L70.5401 80.401L69.2101 81.206L69.8301 79.677L68.1301 79.633L68.4501 81.249L67.1101 80.288L66.44 81.864L68.0901 81.932L66.81 82.799ZM55.5401 81.725C52.9701 82.459 51.6901 83.792 52.1401 85.378C52.5201 86.685 53.4701 87.027 55.4901 86.665L57.3002 86.335C58.0102 86.216 58.24 86.264 58.31 86.535C58.41 86.852 58.0201 87.135 57.2001 87.372C56.2284 87.6894 55.1777 87.6675 54.2201 87.31L53.2801 89.139C54.6762 89.5411 56.1612 89.5115 57.5401 89.054C59.9601 88.362 61.1001 87.13 60.7101 85.736C60.3301 84.41 59.3001 84.017 57.5101 84.301L55.4001 84.643C54.8101 84.743 54.6101 84.694 54.5301 84.435C54.4301 84.07 54.8501 83.74 55.8701 83.449C56.9458 83.1535 58.0918 83.2536 59.1001 83.731L60.2901 81.893C58.7765 81.2776 57.0941 81.217 55.5401 81.722V81.725ZM45.9202 83.132C43.5602 83.171 41.8701 84.15 41.3201 85.8L43.9501 86.336C44.0587 85.9242 44.3135 85.566 44.6667 85.3281C45.02 85.0902 45.4477 84.9888 45.8701 85.043C46.1342 85.012 46.4019 85.0368 46.6559 85.1155C46.9099 85.1942 47.1445 85.3252 47.3448 85.5001C47.5451 85.675 47.7066 85.89 47.8188 86.1311C47.9311 86.3721 47.9917 86.634 47.9966 86.8999C48.0015 87.1658 47.9507 87.4297 47.8474 87.6748C47.7441 87.9198 47.5907 88.1405 47.397 88.3227C47.2033 88.5049 46.9736 88.6445 46.7226 88.7326C46.4717 88.8206 46.2051 88.8552 45.94 88.834C45.52 88.9008 45.09 88.8118 44.7309 88.5838C44.3719 88.3558 44.1084 88.0046 43.9901 87.596L41.3401 88.141C41.8501 89.783 43.6301 90.774 45.9701 90.734C48.7801 90.687 50.73 89.063 50.69 86.813C50.66 84.51 48.7902 83.08 45.9202 83.129V83.132ZM34.5001 81.838L31.7601 81.15L32.7901 84.112C32.3233 84.1567 31.8824 84.3476 31.5305 84.6575C31.1786 84.9675 30.9334 85.3806 30.8301 85.838C30.5501 86.954 30.9501 88.272 33.3301 88.87L38.1501 90.082L39.8801 83.191L37.4001 82.567L36.8301 84.819L35.3901 84.455L34.5001 81.838ZM36.06 87.876L34.31 87.434C33.53 87.239 33.3701 86.826 33.4701 86.409C33.5017 86.2821 33.5619 86.1641 33.6462 86.0641C33.7305 85.9641 33.8366 85.8847 33.9563 85.8321C34.076 85.7795 34.2062 85.755 34.3369 85.7606C34.4676 85.7661 34.5952 85.8015 34.7101 85.864L36.4601 86.303L36.06 87.876ZM26.9101 78.32C24.3401 76.885 21.9901 77.256 20.8501 79.291C19.7101 81.326 20.6301 83.522 23.2001 84.956C25.7701 86.39 28.1301 86.025 29.2601 83.99C30.3901 81.955 29.4901 79.756 26.9101 78.317V78.32ZM26.0001 79.944C26.3155 80.1555 26.5625 80.4543 26.7107 80.804C26.8589 81.1536 26.9018 81.5388 26.8345 81.9126C26.7671 82.2863 26.5924 82.6323 26.3314 82.9082C26.0705 83.184 25.7347 83.3779 25.3653 83.4659C24.9959 83.5539 24.6089 83.5324 24.2516 83.4039C23.8942 83.2754 23.5821 83.0455 23.3534 82.7423C23.1247 82.4392 22.9893 82.0759 22.9639 81.697C22.9384 81.3181 23.024 80.94 23.2101 80.609C23.3381 80.3702 23.5154 80.1612 23.7301 79.9959C23.9448 79.8305 24.1921 79.7125 24.4557 79.6497C24.7193 79.5868 24.9932 79.5806 25.2594 79.6314C25.5256 79.6821 25.7781 79.7886 26.0001 79.944V79.944ZM21.6001 75.225L16.4801 70.392L15.1401 71.818L18.4001 74.894L14.8701 78.632L16.7301 80.39L21.6001 75.225ZM15.5801 69.238L11.6601 63.394L10.0301 64.486L12.5301 68.205L8.26012 71.07L9.69005 73.195L15.5801 69.238ZM9.65013 59.258L8.51012 54.691C7.88012 52.179 6.01008 50.865 3.91008 51.391C1.78008 51.922 0.970093 53.775 1.61009 56.354L2.77013 60.98L9.65013 59.258ZM7.42015 57.178L3.75011 58.097L3.31011 56.361C3.2202 56.1212 3.18323 55.8647 3.20171 55.6092C3.22018 55.3537 3.29363 55.1052 3.4171 54.8808C3.54057 54.6564 3.71113 54.4613 3.91704 54.3089C4.12295 54.1565 4.35937 54.0505 4.61009 53.998C4.86604 53.9165 5.13666 53.8918 5.40312 53.9256C5.66959 53.9594 5.9255 54.0509 6.153 54.1937C6.3805 54.3365 6.57415 54.5271 6.72045 54.7524C6.86674 54.9777 6.96218 55.2321 7.00011 55.498L7.42015 57.178ZM7.59007 44.561C7.66007 41.623 6.23013 39.723 3.90013 39.673C1.57013 39.623 0.060108 41.461 0.00010802 44.399C-0.059892 47.337 1.37011 49.247 3.69011 49.299C6.01011 49.351 7.53007 47.506 7.59007 44.558V44.561ZM5.7401 44.521C5.70153 44.8984 5.55379 45.2564 5.31499 45.5512C5.07618 45.846 4.75669 46.0648 4.39549 46.1809C4.0343 46.297 3.64708 46.3053 3.28124 46.2048C2.91539 46.1044 2.58673 45.8995 2.3355 45.6152C2.08426 45.3309 1.92135 44.9796 1.86662 44.6041C1.8119 44.2287 1.86777 43.8455 2.02739 43.5013C2.18701 43.1571 2.44349 42.8669 2.76543 42.6662C3.08736 42.4654 3.46077 42.3628 3.84007 42.371C4.11082 42.3719 4.37831 42.4301 4.62499 42.5417C4.87166 42.6533 5.09198 42.8158 5.27141 43.0186C5.45084 43.2213 5.58535 43.4597 5.66612 43.7182C5.7469 43.9766 5.77211 44.2492 5.7401 44.518V44.521ZM8.00011 37.043L8.94005 34.332L5.6201 31.71C5.43997 31.5691 5.24556 31.4474 5.04009 31.347L5.0501 31.3C5.27495 31.3602 5.50746 31.3868 5.7401 31.379L9.97008 31.404L10.9101 28.693L5.01012 24.066L4.16008 26.493L7.55016 28.886C7.75626 29.0417 7.98134 29.1704 8.22008 29.269L8.21007 29.316C7.95012 29.2644 7.68463 29.2469 7.42015 29.264L3.19011 29.252L2.3001 31.802L5.6201 34.421C5.81423 34.601 6.03314 34.7521 6.27013 34.87L6.25011 34.918C6.00286 34.8462 5.74746 34.8063 5.4901 34.799L1.34007 34.56L0.490098 36.988L8.00011 37.043ZM12.7601 25.368L14.1802 23.538L11.7201 21.62L10.8601 20.949L10.8901 20.91C11.2497 20.9741 11.6152 20.9982 11.9801 20.982L16.4601 20.62L18.0001 18.648L12.4001 14.282L10.9801 16.104L13.4101 18.004L14.2801 18.681L14.2501 18.72C13.9001 18.6604 13.5448 18.6376 13.19 18.652L8.79015 18.912L7.16008 21.002L12.7601 25.368ZM23.1601 8.368L21.8901 7.355L21.2901 8.83699L20.9401 7.41298L19.4401 8.42201L20.6401 9.29103L19.0301 9.27199L19.4801 10.837L20.7901 10.006L20.2001 11.547L21.9101 11.558L21.56 9.94802L22.9101 10.884L23.5502 9.29604L21.9001 9.26003L23.1601 8.368Z" fill="black"/>
</g>
<defs>
<clipPath id="clip0_754_420">
<rect width="90.68" height="90.719" fill="white"/>
</clipPath>
</defs>
</svg>
