<svg width="301" height="203" viewBox="0 0 301 203" fill="none" xmlns="http://www.w3.org/2000/svg">
<path d="M277.982 202.644C263.953 202.644 255.632 195.464 254.995 185.123H268.41C268.41 188.57 270.32 193.159 278.619 193.444C284.371 193.444 287.554 189.997 287.554 187.407C286.918 183.389 281.802 183.104 276.709 182.225C270.956 181.391 266.5 180.228 263.294 178.8C258.837 176.495 256.269 171.599 256.269 166.44C256.269 157.241 263.953 150.061 277.345 150.061C290.123 150.061 298.422 156.67 299.037 166.725H286.281C286.281 164.156 285.644 159.831 277.982 159.831C272.866 159.831 269.683 160.688 269.046 164.42C269.046 169.601 279.892 169.316 288.191 171.314C295.853 173.334 300.969 178.208 300.969 185.123C300.969 197.77 290.76 202.644 277.982 202.644" fill="white"/>
<path d="M33.5381 117.799L77.5798 92.2211L101.203 132.75H41.8371" fill="white"/>
<path d="M126.15 201.118V149.963Z" fill="white"/>
<path d="M126.15 201.118V149.963" stroke="white" stroke-width="12.8875"/>
<path d="M13.0967 176.299C13.0967 184.334 20.1223 190.943 27.7626 190.943C36.0836 190.943 42.4505 184.334 42.4505 176.299C42.4505 168.548 36.0836 161.655 27.7626 161.655C20.1223 161.655 13.0967 168.548 13.0967 176.299V176.299ZM27.1259 202.732C13.0967 202.732 0.977539 190.943 0.977539 176.299C0.977539 161.655 13.0967 150.15 27.1259 150.15C32.8782 150.15 37.9937 151.599 42.4505 154.739V150.721H55.2283V201.569H42.4505V198.407C38.6304 201.283 32.8782 202.732 27.1259 202.732" fill="white"/>
<path d="M197.589 132.739L136.313 25.8631L180.355 0.000331459L256.955 132.739" fill="white"/>
<path d="M71.8262 176.299C71.8262 184.334 78.2151 190.943 86.5141 190.943C94.1544 190.943 101.202 184.334 101.202 176.299C101.202 168.548 94.1544 161.655 86.5141 161.655C78.2151 161.655 71.8262 168.548 71.8262 176.299ZM85.8774 202.732C71.1895 202.732 59.707 190.943 59.707 176.299C59.707 161.655 71.1895 150.15 85.8774 150.15C91.6076 150.15 96.7232 151.599 101.202 154.739V133.201H113.958V201.569H101.202V198.407C96.7232 201.283 91.6076 202.732 85.8774 202.732" fill="white"/>
<path d="M85.248 72.118L129.926 46.8478L179.084 132.736H132.473V145.382H119.717V132.736" fill="white"/>
<path d="M292.692 145.78C289.486 145.78 286.303 142.904 286.303 139.457C286.303 136.01 289.486 133.134 292.692 133.134C296.512 133.134 299.081 136.01 299.081 139.457C299.081 142.904 296.512 145.78 292.692 145.78ZM292.692 134.012C289.486 134.012 287.576 136.581 287.576 139.457C287.576 142.333 289.486 144.924 292.692 144.924C295.875 144.924 297.785 142.333 297.785 139.457C297.785 136.581 295.875 134.012 292.692 134.012Z" fill="white"/>
<path d="M294.009 142.927L292.736 140.051H291.462V142.927H290.496V136.033H293.372C294.009 136.033 295.282 136.911 295.282 138.053C295.282 139.194 294.646 139.765 294.009 140.051L295.282 142.927H294.009ZM292.736 136.911H291.462V139.194H292.736C294.009 139.194 294.009 138.909 294.009 138.053C294.009 137.46 294.009 136.911 292.736 136.911" fill="white"/>
<path d="M208.385 176.299C208.385 184.334 214.774 190.943 223.073 190.943C230.735 190.943 237.739 184.334 237.739 176.299C237.739 168.548 230.735 161.655 223.073 161.655C214.774 161.655 208.385 168.548 208.385 176.299V176.299ZM222.414 202.732C207.748 202.732 196.266 190.943 196.266 176.299C196.266 161.655 207.748 150.15 222.414 150.15C228.166 150.15 233.282 151.599 237.739 154.739V150.721H249.88V201.569H237.739V198.407C233.282 201.283 228.166 202.732 222.414 202.732" fill="white"/>
<path d="M149.699 176.299C149.699 184.334 156.725 190.943 164.387 190.943C172.686 190.943 179.075 184.334 179.075 176.299C179.075 168.548 172.686 161.655 164.387 161.655C156.725 161.655 149.699 168.548 149.699 176.299ZM179.075 133.201H191.831V201.569H179.075V198.407C175.233 201.283 170.117 202.732 164.387 202.732C149.699 202.732 137.58 190.943 137.58 176.299C137.58 161.655 149.699 150.15 164.387 150.15C170.117 150.15 175.233 151.599 179.075 154.739V133.201Z" fill="white"/>
</svg>
