<svg width="35" height="35" viewBox="0 0 35 35" fill="none" xmlns="http://www.w3.org/2000/svg">
<g clip-path="url(#clip0_756_497)">
<path d="M17.5 18.4688C18.1016 18.4688 18.6348 18.1953 19.2637 17.5664L31.1992 5.68555C30.6523 5.2207 29.709 4.98828 28.3828 4.98828H6.30273C5.12695 4.98828 4.26562 5.20703 3.77344 5.64453L15.75 17.5664C16.3789 18.1953 16.9121 18.4688 17.5 18.4688ZM2.35156 26.9043L12.2773 17.0469L2.39258 7.29883C2.11914 7.76367 1.96875 8.51562 1.96875 9.58203V24.7031C1.96875 25.7285 2.10547 26.4668 2.35156 26.9043ZM32.6348 26.8906C32.8809 26.4395 33.0176 25.7148 33.0176 24.7031V9.58203C33.0176 8.54297 32.8672 7.77734 32.5938 7.32617L22.7363 17.0469L32.6348 26.8906ZM6.60352 29.2969H28.6699C29.9141 29.2969 30.7891 29.0508 31.3086 28.5859L21.2051 18.5508L20.3984 19.3438C19.4414 20.2734 18.5254 20.7109 17.5 20.7109C16.4746 20.7109 15.5586 20.2734 14.6016 19.3438L13.7949 18.5508L3.70508 28.5723C4.2793 29.0508 5.25 29.2969 6.60352 29.2969Z" fill="white"/>
</g>
<defs>
<clipPath id="clip0_756_497">
<rect width="35" height="35" fill="white"/>
</clipPath>
</defs>
</svg>
